<svg width="18" height="18" viewBox="0 0 18 18" fill="none" xmlns="http://www.w3.org/2000/svg">
<rect width="18" height="18" rx="2" fill="#FFB900"/>
<path d="M12.7539 7.80078H11.043C11.0117 7.57943 10.9479 7.38281 10.8516 7.21094C10.7552 7.03646 10.6315 6.88802 10.4805 6.76562C10.3294 6.64323 10.1549 6.54948 9.95703 6.48437C9.76172 6.41927 9.54948 6.38672 9.32031 6.38672C8.90625 6.38672 8.54557 6.48958 8.23828 6.69531C7.93099 6.89844 7.69271 7.19531 7.52344 7.58594C7.35417 7.97396 7.26953 8.44531 7.26953 9C7.26953 9.57031 7.35417 10.0495 7.52344 10.4375C7.69531 10.8255 7.9349 11.1185 8.24219 11.3164C8.54948 11.5143 8.90495 11.6133 9.30859 11.6133C9.53516 11.6133 9.74479 11.5833 9.9375 11.5234C10.1328 11.4635 10.306 11.3763 10.457 11.2617C10.6081 11.1445 10.7331 11.0026 10.832 10.8359C10.9336 10.6693 11.0039 10.4792 11.043 10.2656L12.7539 10.2734C12.7096 10.6406 12.599 10.9948 12.4219 11.3359C12.2474 11.6745 12.0117 11.9779 11.7148 12.2461C11.4206 12.5117 11.069 12.7227 10.6602 12.8789C10.2539 13.0326 9.79427 13.1094 9.28125 13.1094C8.56771 13.1094 7.92969 12.9479 7.36719 12.625C6.80729 12.3021 6.36458 11.8346 6.03906 11.2227C5.71615 10.6107 5.55469 9.86979 5.55469 9C5.55469 8.1276 5.71875 7.38542 6.04688 6.77344C6.375 6.16146 6.82031 5.69531 7.38281 5.375C7.94531 5.05208 8.57813 4.89062 9.28125 4.89062C9.74479 4.89062 10.1745 4.95573 10.5703 5.08594C10.9688 5.21615 11.3216 5.40625 11.6289 5.65625C11.9362 5.90365 12.1862 6.20703 12.3789 6.56641C12.5742 6.92578 12.6992 7.33724 12.7539 7.80078Z" fill="white"/>
</svg>
