<svg width="20" height="16" viewBox="0 0 20 16" fill="none" xmlns="http://www.w3.org/2000/svg">
<path d="M16.9419 1.52317C15.6473 0.917444 14.263 0.477226 12.8157 0.226562C12.638 0.547905 12.4304 0.980117 12.2872 1.32394C10.7487 1.09258 9.22445 1.09258 7.7143 1.32394C7.57116 0.980117 7.3588 0.547905 7.17947 0.226562C5.73067 0.477226 4.3448 0.919062 3.05016 1.52638C0.438869 5.47238 -0.269009 9.32038 0.0849305 13.1137C1.81688 14.4071 3.49534 15.1928 5.14548 15.7069C5.55291 15.1462 5.91628 14.5501 6.22931 13.9219C5.63313 13.6954 5.06211 13.4158 4.52256 13.0912C4.6657 12.9852 4.80571 12.8743 4.94098 12.7603C8.23183 14.2995 11.8074 14.2995 15.0589 12.7603C15.1958 12.8743 15.3358 12.9852 15.4774 13.0912C14.9362 13.4174 14.3637 13.6969 13.7675 13.9235C14.0805 14.5501 14.4423 15.1478 14.8513 15.7085C16.503 15.1944 18.183 14.4087 19.915 13.1137C20.3303 8.71627 19.2056 4.90361 16.9419 1.52317ZM6.67765 10.7809C5.68977 10.7809 4.87963 9.85861 4.87963 8.73554C4.87963 7.61247 5.67247 6.68864 6.67765 6.68864C7.68285 6.68864 8.49297 7.61086 8.47567 8.73554C8.47723 9.85861 7.68285 10.7809 6.67765 10.7809ZM13.3223 10.7809C12.3344 10.7809 11.5243 9.85861 11.5243 8.73554C11.5243 7.61247 12.3171 6.68864 13.3223 6.68864C14.3275 6.68864 15.1376 7.61086 15.1203 8.73554C15.1203 9.85861 14.3275 10.7809 13.3223 10.7809Z" fill="#5865F2"/>
</svg>
