<svg width="22" height="22" viewBox="0 0 22 22" fill="none" xmlns="http://www.w3.org/2000/svg">
<path d="M14.1087 13.9115H13.7224C13.7224 16.3216 15.5895 18.2498 17.8612 18.2498C20.1329 18.2498 22 16.2927 22 13.9115H21.6689H21.6137L18.8361 4.25153H18.9189V3.00789H11.7174L11.7358 0H11.699H11.653H10.3562H10.3102H10.2826L10.301 3.00789H3.0811V4.25153H3.16388L0.395485 13.9115H0.340301H0C0 16.312 1.86706 18.2498 4.1388 18.2498C6.41054 18.2498 8.27759 16.312 8.27759 13.9115H7.8913H7.79933L5.03094 4.25153L10.2734 4.2901V19.3585L10.2642 19.3295V19.3874H4.1204V22H17.8704V19.3777H11.7266V19.3199L11.7174 19.3488V4.2901L16.9599 4.25153L14.1823 13.9115H14.1087ZM6.8888 13.9115H1.3888L4.09281 4.35758L4.1204 4.34794L6.8888 13.9115ZM17.8704 4.3383L17.898 4.34794L20.602 13.9018H15.102L17.8704 4.3383Z" fill="#667085"/>
</svg>
