<svg width="20" height="20" viewBox="0 0 24 24" fill="none" xmlns="http://www.w3.org/2000/svg">
    <path d="M11.9999 15.2144H19.4999V16.2858H11.9999V15.2144ZM11.9999 7.71439H19.4999V8.78582H11.9999V7.71439ZM7.71415 9.85725V5.57153H6.64272V6.10725H5.57129V7.17868H6.64272V9.85725H5.57129V10.9287H8.78557V9.85725H7.71415ZM8.78557 18.4287H5.57129V16.2858C5.57129 16.0017 5.68417 15.7291 5.8851 15.5282C6.08604 15.3273 6.35856 15.2144 6.64272 15.2144H7.71415V14.143H5.57129V13.0715H7.71415C7.99831 13.0715 8.27083 13.1844 8.47176 13.3853C8.67269 13.5863 8.78557 13.8588 8.78557 14.143V15.2144C8.78557 15.4986 8.67269 15.7711 8.47176 15.972C8.27083 16.1729 7.99831 16.2858 7.71415 16.2858H6.64272V17.3572H8.78557V18.4287Z" fill="grey"/>
</svg>
