<svg width="22" height="24" viewBox="0 0 22 24" fill="none" xmlns="http://www.w3.org/2000/svg">
<path d="M16.8332 9.66667V7.33333C16.8332 4.11167 14.2215 1.5 10.9998 1.5C7.77818 1.5 5.1665 4.11167 5.1665 7.33333V9.66667M10.9998 14.9167V17.25M7.2665 22.5H14.7332C16.6934 22.5 17.6734 22.5 18.4221 22.1185C19.0807 21.783 19.6161 21.2475 19.9517 20.589C20.3332 19.8403 20.3332 18.8602 20.3332 16.9V15.2667C20.3332 13.3065 20.3332 12.3264 19.9517 11.5777C19.6161 10.9191 19.0807 10.3837 18.4221 10.0481C17.6734 9.66667 16.6934 9.66667 14.7332 9.66667H7.2665C5.30632 9.66667 4.32623 9.66667 3.57754 10.0481C2.91897 10.3837 2.38354 10.9191 2.04798 11.5777C1.6665 12.3264 1.6665 13.3065 1.6665 15.2667V16.9C1.6665 18.8602 1.6665 19.8403 2.04798 20.589C2.38354 21.2475 2.91897 21.783 3.57754 22.1185C4.32623 22.5 5.30632 22.5 7.2665 22.5Z" stroke="#344054" stroke-width="2" stroke-linecap="round" stroke-linejoin="round"/>
</svg>
