<svg xmlns="http://www.w3.org/2000/svg" width="770" height="144" viewBox="0 0 770 144" fill="none"><rect width="130" height="130" rx="20" fill="#13715B"></rect><path d="M64.3907 106.208V65.5L53.6821 70.8015C34.6689 80.2684 22.8675 97.8768 22.8675 117H15V70.4228C15 55.2757 25.053 41.2647 41.0066 34.6379L64.6093 24.7922V65.5L75.3179 60.1985C94.3311 50.7316 106.132 33.1232 106.132 14H114V60.5772C114 75.7243 103.947 89.7353 87.9934 96.3621L64.3907 106.208Z" fill="white"></path><path d="M174 30.8L199.68 99.56L225.24 30.8H239.52L206.04 116H193.32L159.72 30.8H174ZM268.485 117.2C263.605 117.2 259.165 116.36 255.165 114.68C251.245 112.92 247.845 110.56 244.965 107.6C242.085 104.56 239.845 101.12 238.245 97.28C236.725 93.36 235.965 89.2 235.965 84.8C235.965 78.88 237.325 73.48 240.045 68.6C242.765 63.64 246.565 59.68 251.445 56.72C256.325 53.68 262.045 52.16 268.605 52.16C275.165 52.16 280.805 53.68 285.525 56.72C290.325 59.68 294.045 63.6 296.685 68.48C299.325 73.36 300.645 78.6 300.645 84.2C300.645 85.16 300.605 86.08 300.525 86.96C300.445 87.76 300.365 88.44 300.285 89H250.005C250.245 92.68 251.245 95.92 253.005 98.72C254.845 101.44 257.165 103.6 259.965 105.2C262.765 106.72 265.765 107.48 268.965 107.48C272.485 107.48 275.805 106.6 278.925 104.84C282.125 103.08 284.285 100.76 285.405 97.88L296.685 101.12C295.325 104.16 293.245 106.92 290.445 109.4C287.725 111.8 284.485 113.72 280.725 115.16C276.965 116.52 272.885 117.2 268.485 117.2ZM249.645 80.24H287.565C287.325 76.64 286.285 73.48 284.445 70.76C282.685 67.96 280.405 65.8 277.605 64.28C274.885 62.68 271.845 61.88 268.485 61.88C265.205 61.88 262.165 62.68 259.365 64.28C256.645 65.8 254.405 67.96 252.645 70.76C250.885 73.48 249.885 76.64 249.645 80.24ZM346.692 64.64C341.572 64.72 337.012 65.88 333.012 68.12C329.092 70.36 326.292 73.52 324.612 77.6V116H311.412V53.24H323.652V67.28C325.812 62.96 328.652 59.52 332.172 56.96C335.692 54.32 339.412 52.88 343.332 52.64C344.132 52.64 344.772 52.64 345.252 52.64C345.812 52.64 346.292 52.68 346.692 52.76V64.64ZM356.295 116V53.24H369.495V116H356.295ZM356.295 42.92V28.4H369.495V42.92H356.295ZM388.958 116V65H380.558V54.8H388.958V52.28C388.958 47.16 389.758 42.72 391.358 38.96C393.038 35.2 395.358 32.32 398.318 30.32C401.358 28.24 404.918 27.2 408.998 27.2C411.558 27.2 414.078 27.56 416.558 28.28C419.038 28.92 421.398 29.84 423.638 31.04L420.758 40.88C419.558 40.08 418.118 39.48 416.438 39.08C414.838 38.6 413.278 38.36 411.758 38.36C408.718 38.36 406.358 39.52 404.678 41.84C402.998 44.16 402.158 47.52 402.158 51.92V54.8H418.238V65H402.158V116H388.958ZM430.291 130.76C431.491 130.92 432.651 131.08 433.771 131.24C434.971 131.48 435.931 131.6 436.651 131.6C438.011 131.6 439.171 131.16 440.131 130.28C441.171 129.48 442.211 127.96 443.251 125.72C444.291 123.48 445.571 120.24 447.091 116L421.291 53.24H435.091L454.291 102.56L471.331 53.24H484.051L455.611 130.52C454.731 132.84 453.451 134.96 451.771 136.88C450.091 138.88 448.011 140.44 445.531 141.56C443.051 142.68 440.131 143.24 436.771 143.24C435.811 143.24 434.811 143.16 433.771 143C432.731 142.84 431.571 142.6 430.291 142.28V130.76ZM524.035 31.16H536.635L547.195 60.08L557.875 31.16H570.475L555.835 69.08L568.555 100.4L595.075 30.8H609.835L574.915 116H563.275L547.315 77.84L531.235 116H519.475L484.675 30.8H499.315L525.955 100.4L538.675 69.08L524.035 31.16ZM618.209 116V53.24H631.409V116H618.209ZM618.209 42.92V28.4H631.409V42.92H618.209ZM669.592 117.2C664.312 117.2 659.312 116.36 654.592 114.68C649.872 112.92 645.832 110.32 642.472 106.88L647.392 98C650.992 101.2 654.592 103.52 658.192 104.96C661.872 106.4 665.512 107.12 669.112 107.12C672.792 107.12 675.792 106.44 678.112 105.08C680.432 103.64 681.592 101.56 681.592 98.84C681.592 96.84 680.992 95.36 679.792 94.4C678.592 93.44 676.832 92.6 674.512 91.88C672.272 91.16 669.552 90.36 666.352 89.48C661.872 88.12 658.112 86.72 655.072 85.28C652.032 83.76 649.752 81.92 648.232 79.76C646.712 77.6 645.952 74.84 645.952 71.48C645.952 67.4 646.992 63.92 649.072 61.04C651.152 58.16 654.032 55.96 657.712 54.44C661.472 52.92 665.792 52.16 670.672 52.16C675.232 52.16 679.432 52.88 683.272 54.32C687.192 55.68 690.632 57.84 693.592 60.8L687.952 69.56C685.152 67 682.272 65.12 679.312 63.92C676.432 62.72 673.312 62.12 669.952 62.12C668.032 62.12 666.192 62.36 664.432 62.84C662.672 63.24 661.192 64.04 659.992 65.24C658.872 66.36 658.312 67.96 658.312 70.04C658.312 71.72 658.792 73.08 659.752 74.12C660.712 75.16 662.152 76.04 664.072 76.76C665.992 77.48 668.352 78.28 671.152 79.16C676.032 80.6 680.192 82.04 683.632 83.48C687.072 84.84 689.712 86.64 691.552 88.88C693.472 91.04 694.432 94.04 694.432 97.88C694.432 103.96 692.152 108.72 687.592 112.16C683.112 115.52 677.112 117.2 669.592 117.2ZM734.657 117.2C729.777 117.2 725.337 116.36 721.337 114.68C717.417 112.92 714.017 110.56 711.137 107.6C708.257 104.56 706.017 101.12 704.417 97.28C702.897 93.36 702.137 89.2 702.137 84.8C702.137 78.88 703.497 73.48 706.217 68.6C708.937 63.64 712.737 59.68 717.617 56.72C722.497 53.68 728.217 52.16 734.777 52.16C741.337 52.16 746.977 53.68 751.697 56.72C756.497 59.68 760.217 63.6 762.857 68.48C765.497 73.36 766.817 78.6 766.817 84.2C766.817 85.16 766.777 86.08 766.697 86.96C766.617 87.76 766.537 88.44 766.457 89H716.177C716.417 92.68 717.417 95.92 719.177 98.72C721.017 101.44 723.337 103.6 726.137 105.2C728.937 106.72 731.937 107.48 735.137 107.48C738.657 107.48 741.977 106.6 745.097 104.84C748.297 103.08 750.457 100.76 751.577 97.88L762.857 101.12C761.497 104.16 759.417 106.92 756.617 109.4C753.897 111.8 750.657 113.72 746.897 115.16C743.137 116.52 739.057 117.2 734.657 117.2ZM715.817 80.24H753.737C753.497 76.64 752.457 73.48 750.617 70.76C748.857 67.96 746.577 65.8 743.777 64.28C741.057 62.68 738.017 61.88 734.657 61.88C731.377 61.88 728.337 62.68 725.537 64.28C722.817 65.8 720.577 67.96 718.817 70.76C717.057 73.48 716.057 76.64 715.817 80.24Z" fill="black"></path></svg>