<svg width="30" height="30" viewBox="0 0 30 30" fill="none" xmlns="http://www.w3.org/2000/svg">
<path d="M28.0218 12.2788C28.3626 11.2689 28.4809 10.1987 28.3686 9.14C28.2564 8.08128 27.9162 7.05844 27.3709 6.13996C25.712 3.2899 22.3771 1.82362 19.1201 2.51363C18.4041 1.71752 17.524 1.08146 16.5387 0.647994C15.5535 0.214529 14.4858 -0.00634727 13.4071 0.000138817C10.0779 -0.00736134 7.12398 2.10768 6.09976 5.23338C5.04256 5.44694 4.04379 5.88086 3.17027 6.50609C2.29676 7.13132 1.56866 7.93344 1.03469 8.85876C-0.636558 11.7013 -0.255562 15.2845 1.97721 17.7221C1.63634 18.732 1.51807 19.8022 1.63031 20.8609C1.74255 21.9196 2.08272 22.9425 2.62804 23.861C4.28694 26.711 7.62184 28.1773 10.8788 27.4873C11.5947 28.2835 12.4748 28.9196 13.4601 29.3529C14.4454 29.7862 15.5132 30.0068 16.5919 29.9998C19.923 30.0083 22.8778 27.8914 23.9021 24.7629C24.9592 24.5493 25.958 24.1154 26.8315 23.4901C27.705 22.8649 28.4332 22.0628 28.9671 21.1375C30.6365 18.2949 30.2545 14.7145 28.0227 12.277L28.0218 12.2788ZM16.5938 28.0395C15.2609 28.0416 13.9697 27.5809 12.9463 26.7382C12.9928 26.7138 13.0736 26.6698 13.1259 26.6379L19.18 23.1878C19.3321 23.1025 19.4583 22.9788 19.5458 22.8293C19.6334 22.6799 19.6789 22.5101 19.6778 22.3375V13.9157L22.2365 15.3736C22.2641 15.3867 22.2821 15.413 22.2859 15.443V22.4172C22.2821 25.5185 19.7368 28.0329 16.5938 28.0395ZM4.35249 22.8803C3.6847 21.7424 3.4442 20.4088 3.67316 19.1134C3.71782 19.1396 3.79668 19.1874 3.85273 19.2193L9.90686 22.6694C10.2138 22.8466 10.5938 22.8466 10.9016 22.6694L18.2926 18.458V21.3737C18.2945 21.4037 18.2802 21.4328 18.2565 21.4515L12.1368 24.9382C9.4109 26.487 5.92968 25.5663 4.35344 22.8803H4.35249ZM2.75915 9.84035C3.42423 8.70032 4.47411 7.82843 5.72446 7.37561C5.72446 7.42717 5.72161 7.51811 5.72161 7.58186V14.4829C5.71971 14.8336 5.90973 15.1589 6.21852 15.3323L13.6095 19.5427L11.0508 21.0006C11.0251 21.0175 10.9928 21.0203 10.9643 21.0081L4.8437 17.5186C2.12353 15.9642 1.19051 12.5301 2.7582 9.84129L2.75915 9.84035ZM23.7814 14.6676L16.3904 10.4563L18.9491 8.99939C18.9748 8.98252 19.0071 8.97971 19.0356 8.99189L25.1562 12.4785C27.8811 14.032 28.8151 17.4718 27.2408 20.1606C26.575 21.2986 25.5261 22.1704 24.2764 22.6244V15.517C24.2792 15.1664 24.0902 14.842 23.7823 14.6676H23.7814ZM26.3277 10.8857C26.283 10.8585 26.2042 10.8116 26.1481 10.7797L20.094 7.32967C19.9431 7.24264 19.7714 7.19677 19.5966 7.19677C19.4218 7.19677 19.2501 7.24264 19.0992 7.32967L11.7083 11.541V8.62532C11.7064 8.59532 11.7206 8.56626 11.7444 8.54751L17.8641 5.06368C20.59 3.51209 24.075 4.43555 25.6465 7.12623C26.3106 8.26274 26.551 9.5927 26.3258 10.8857H26.3277ZM10.3173 16.0824L7.75771 14.6245C7.74424 14.618 7.73266 14.6082 7.72402 14.5961C7.71539 14.5839 7.70998 14.5699 7.7083 14.5551V7.58093C7.7102 4.47586 10.2632 1.95956 13.4099 1.96143C14.741 1.96143 16.0294 2.42269 17.0527 3.26271C17.0061 3.28708 16.9263 3.33115 16.8731 3.36302L10.819 6.8131C10.6669 6.8982 10.5407 7.02177 10.4531 7.17108C10.3656 7.32038 10.3201 7.49001 10.3211 7.66249L10.3173 16.0805V16.0824ZM11.7073 13.1254L14.9995 11.2494L18.2916 13.1245V16.8755L14.9995 18.7505L11.7073 16.8755V13.1254Z" fill="black"/>
</svg>
