<svg width="30" height="30" viewBox="0 0 30 30" fill="none" xmlns="http://www.w3.org/2000/svg">
<g clip-path="url(#clip0_19_7)">
<path fill-rule="evenodd" clip-rule="evenodd" d="M21.005 2.44629L30.03 7.57754V7.68629L20.9125 12.7625L20.9337 10.1163L19.9075 10.0788C18.5837 10.0438 17.8937 10.0813 17.0725 10.2163C15.7425 10.435 14.525 10.9375 13.1387 11.9063L10.4313 13.7875C10.0763 14.0313 9.8125 14.2075 9.58125 14.3563L8.9375 14.7588L8.44125 15.0513L8.9225 15.3388L9.585 15.7613C10.18 16.1538 11.0475 16.7563 12.9613 18.0938C14.3488 19.0625 15.565 19.565 16.895 19.7838L17.27 19.84C18.1375 19.9538 18.9888 19.9575 20.8013 19.8813L20.8288 17.1825L29.8537 22.3138V22.4225L20.7363 27.5L20.7538 25.1725L19.96 25.2C18.2275 25.2525 17.2887 25.2025 16.0375 24.9975C13.92 24.6475 11.9625 23.84 9.93625 22.4238L7.23875 20.5488C6.92847 20.3348 6.61382 20.1273 6.295 19.9263L5.71125 19.5763C5.39599 19.3947 5.07931 19.2155 4.76125 19.0388C3.635 18.4125 0.70375 17.645 0 17.645V12.36L0.175 12.365C0.88 12.3563 3.8125 11.5875 4.93625 10.96L6.20625 10.235L6.75375 9.89254C7.28875 9.54254 8.09375 8.98504 10.1112 7.57629C12.1375 6.16004 14.0938 5.35129 16.2125 5.00254C17.6525 4.76504 18.68 4.73629 20.98 4.83004L21.005 2.44629Z" fill="black"/>
</g>
<defs>
<clipPath id="clip0_19_7">
<rect width="30" height="30" fill="white"/>
</clipPath>
</defs>
</svg>
