<svg width="18" height="18" viewBox="0 0 18 18" fill="none" xmlns="http://www.w3.org/2000/svg">
<rect width="18" height="18" rx="2" fill="#EA3434"/>
<path d="M5.69531 13V5H8.85156C9.45833 5 9.97526 5.11589 10.4023 5.34766C10.8294 5.57682 11.1549 5.89583 11.3789 6.30469C11.6055 6.71094 11.7188 7.17969 11.7188 7.71094C11.7188 8.24219 11.6042 8.71094 11.375 9.11719C11.1458 9.52344 10.8138 9.83984 10.3789 10.0664C9.94661 10.293 9.42318 10.4062 8.80859 10.4062H6.79688V9.05078H8.53516C8.86068 9.05078 9.12891 8.99479 9.33984 8.88281C9.55339 8.76823 9.71224 8.61068 9.81641 8.41016C9.92318 8.20703 9.97656 7.97396 9.97656 7.71094C9.97656 7.44531 9.92318 7.21354 9.81641 7.01562C9.71224 6.8151 9.55339 6.66016 9.33984 6.55078C9.1263 6.4388 8.85547 6.38281 8.52734 6.38281H7.38672V13H5.69531Z" fill="white"/>
</svg>
