<svg width="20" height="20" viewBox="0 0 24 24" fill="none" xmlns="http://www.w3.org/2000/svg">
    <rect x="3" y="3" width="18" height="18" rx="2" stroke="grey" stroke-width="1.5" stroke-linecap="round" stroke-linejoin="round"/>
    <path d="M20.0346 25.1293C19.4252 25.1293 18.882 25.0246 18.405 24.8153C17.931 24.6061 17.554 24.3152 17.274 23.9428C16.997 23.5674 16.8462 23.1319 16.8216 22.6364H17.9849C18.0095 22.9411 18.1142 23.2042 18.2988 23.4258C18.4835 23.6443 18.7251 23.8136 19.0236 23.9336C19.3221 24.0536 19.653 24.1136 20.0162 24.1136C20.4224 24.1136 20.7825 24.0429 21.0964 23.9013C21.4103 23.7597 21.6565 23.5627 21.835 23.3104C22.0136 23.058 22.1028 22.7656 22.1028 22.4332C22.1028 22.0855 22.0166 21.7792 21.8443 21.5146C21.6719 21.2468 21.4196 21.0375 21.0872 20.8867C20.7548 20.7359 20.3485 20.6605 19.8684 20.6605H19.1113V19.6449H19.8684C20.2439 19.6449 20.5732 19.5772 20.8564 19.4418C21.1426 19.3063 21.3657 19.1155 21.5257 18.8693C21.6889 18.6231 21.7704 18.3338 21.7704 18.0014C21.7704 17.6813 21.6996 17.4028 21.5581 17.1658C21.4165 16.9289 21.2164 16.7442 20.9579 16.6119C20.7025 16.4795 20.4009 16.4134 20.0531 16.4134C19.7269 16.4134 19.4191 16.4734 19.1298 16.5934C18.8436 16.7103 18.6097 16.8812 18.4281 17.1058C18.2465 17.3274 18.148 17.5952 18.1326 17.9091H17.0247C17.0431 17.4136 17.1924 16.9796 17.4725 16.6072C17.7525 16.2318 18.1188 15.9394 18.5712 15.7301C19.0267 15.5208 19.5268 15.4162 20.0716 15.4162C20.6563 15.4162 21.158 15.5347 21.5765 15.7717C21.9951 16.0056 22.3167 16.3149 22.5414 16.6996C22.766 17.0843 22.8784 17.4998 22.8784 17.946C22.8784 18.4785 22.7383 18.9324 22.4583 19.3079C22.1813 19.6834 21.8043 19.9434 21.3272 20.0881V20.1619C21.9243 20.2604 22.3906 20.5143 22.726 20.9237C23.0615 21.3299 23.2292 21.8331 23.2292 22.4332C23.2292 22.9472 23.0892 23.4089 22.8091 23.8182C22.5321 24.2244 22.1536 24.5445 21.6735 24.7784C21.1934 25.0123 20.6471 25.1293 20.0346 25.1293Z" transform="translate(-7.5 -8.5)" fill="grey"/>
</svg>
