<svg width="20" height="20" viewBox="0 0 24 24" fill="none" xmlns="http://www.w3.org/2000/svg">
<rect x="3" y="3" width="18" height="18" rx="2" stroke="grey" stroke-width="1.5" stroke-linecap="round" stroke-linejoin="round"/>
<path d="M17.0431 25V24.169L20.1639 20.7528C20.5301 20.3527 20.8317 20.005 21.0687 19.7095C21.3057 19.411 21.4811 19.1309 21.595 18.8693C21.7119 18.6046 21.7704 18.3277 21.7704 18.0384C21.7704 17.706 21.6904 17.4182 21.5304 17.1751C21.3734 16.9319 21.158 16.7442 20.8841 16.6119C20.6101 16.4795 20.3024 16.4134 19.9608 16.4134C19.5976 16.4134 19.2806 16.4888 19.0098 16.6396C18.742 16.7873 18.5343 16.995 18.3865 17.2628C18.2419 17.5305 18.1696 17.8445 18.1696 18.2045H17.0801C17.0801 17.6506 17.2078 17.1643 17.4632 16.7457C17.7187 16.3272 18.0665 16.0009 18.5066 15.767C18.9498 15.5331 19.4468 15.4162 19.9977 15.4162C20.5517 15.4162 21.0426 15.5331 21.4703 15.767C21.8981 16.0009 22.2336 16.3164 22.4767 16.7134C22.7199 17.1104 22.8414 17.5521 22.8414 18.0384C22.8414 18.3861 22.7783 18.7262 22.6522 19.0586C22.5291 19.3879 22.3136 19.7557 22.0059 20.1619C21.7012 20.5651 21.278 21.0575 20.7363 21.6392L18.6127 23.9105V23.9844H23.0076V25H17.0431Z" transform="translate(-7.5 -8.5)" fill="grey"/>
</svg>
