<svg viewBox="0 0 24 24" xmlns="http://www.w3.org/2000/svg"><path d="M19.885 4.946 16.922 9.14v7.858l.002 9.002h3.769l-.006-10.53-.006-10.524-1.876 2.67M.072 8.262c.004.01 2.328 3.321 5.165 7.355l5.158 7.338 2.28-.006 2.28-.006L9.787 15.6 4.62 8.25H2.337c-1.255 0-2.277.008-2.274.018m18.112-7.238L16 1.03l-3.948 5.62c-2.171 3.09-3.956 5.637-3.967 5.66-.015.032.209.365 1.097 1.63.614.874 1.128 1.602 1.143 1.617.023.024.854-1.14 2.927-4.103.048-.068 1.232-1.754 2.631-3.743 1.4-1.99 1.977-2.81 1.858-2.86-.03-.012-1.09-.008-2.285.005M2.343 19.72.07 22.955l2.285.004 2.285.005 1.026-1.463c.564-.804 1.077-1.535 1.139-1.624l.114-.16-1.134-1.614c-.623-.888-1.141-1.617-1.151-1.62-.01-.003-1.05 1.452-2.29 3.232" fill="currentColor"/></svg>