<svg id="canvas" height="auto" xmlns="http://www.w3.org/2000/svg" version="1.1" xmlns:xlink="http://www.w3.org/1999/xlink" viewBox="0 0 900 512" width="auto" style="width: auto; height: auto;"><defs><linearGradient gradientTransform="matrix(6.123233995736766e-17,1,-1,6.123233995736766e-17,0,0)" id="SvgjsLinearGradient1003"><stop stop-color="#45d5c9ff" offset="0"/><stop stop-color="#0e403cff" offset="1"/></linearGradient><linearGradient gradientTransform="matrix(-0.25881904510252085,0.9659258262890683,-0.9659258262890683,-0.25881904510252085,0,0)" id="SvgjsLinearGradient1004"><stop stop-color="#6fd97aff" offset="0"/><stop stop-color="#2fb33dff" offset="1"/></linearGradient><linearGradient gradientTransform="matrix(-0.25881904510252085,0.9659258262890683,-0.9659258262890683,-0.25881904510252085,0,0)" id="SvgjsLinearGradient1005"><stop stop-color="#051106ff" offset="0"/><stop stop-color="#2fb33dff" offset="1"/></linearGradient></defs><rect width="900" height="512" fill="url(#SvgjsLinearGradient1003)"/><g transform="matrix(0.8,0,0,0.8,-59.599999999999994,31.120001220703116)"><path d="M291 448.5L369.5 2L2 448.5H291Z" fill="url(#SvgjsLinearGradient1004)" transform="matrix(1,0,0,1,-300,153.59999999999997)"/><path d="M290.5 448L370 2.5L708.5 448H290.5Z" fill="url(#SvgjsLinearGradient1005)" transform="matrix(1,0,0,1,-300,153.59999999999997)"/></g><g transform="matrix(0.3816642087279266,0,0,0.3816642087279266,1.2366715825441468,212.09810196873792)"><path d="M291 448.5L369.5 2L2 448.5H291Z" fill="url(#SvgjsLinearGradient1004)" transform="matrix(1,0,0,1,0,341.0144344898889)"/><path d="M290.5 448L370 2.5L708.5 448H290.5Z" fill="url(#SvgjsLinearGradient1005)" transform="matrix(1,0,0,1,0,341.0144344898889)"/></g><g transform="matrix(0.8,0,0,0.8,60.39999999999998,31.120001220703116)"><path d="M291 448.5L369.5 2L2 448.5H291Z" fill="url(#SvgjsLinearGradient1004)" transform="matrix(1,0,0,1,300,153.59999999999997)"/><path d="M290.5 448L370 2.5L708.5 448H290.5Z" fill="url(#SvgjsLinearGradient1005)" transform="matrix(1,0,0,1,300,153.59999999999997)"/></g><g transform="matrix(0.8,0,0,0.8,120.39999999999998,31.120001220703116)"><path d="M291 448.5L369.5 2L2 448.5H291Z" fill="url(#SvgjsLinearGradient1004)" transform="matrix(1,0,0,1,600,153.59999999999997)"/><path d="M290.5 448L370 2.5L708.5 448H290.5Z" fill="url(#SvgjsLinearGradient1005)" transform="matrix(1,0,0,1,600,153.59999999999997)"/></g></svg>