<svg width="250" height="176" viewBox="0 0 250 176" fill="none" xmlns="http://www.w3.org/2000/svg">
<rect x="0.5" y="72.5" width="249" height="31" rx="3.5" fill="white" stroke="#E1E1E1"/>
<rect x="35" y="81" width="85" height="15" rx="7.5" fill="#F1F1F1"/>
<rect x="10" y="81" width="15" height="15" rx="7.5" fill="#F1F1F1"/>
<rect x="27" y="34" width="196" height="26" rx="4" fill="white"/>
<rect x="27.5" y="34.5" width="195" height="25" rx="3.5" stroke="#E1E1E1" stroke-opacity="0.71"/>
<rect x="55" y="42" width="107" height="11" rx="5.5" fill="#F4F4F4"/>
<rect x="35" y="42" width="12" height="11" rx="5.5" fill="#F4F4F4"/>
<rect x="27" y="116" width="196" height="26" rx="4" fill="white"/>
<rect x="27.5" y="116.5" width="195" height="25" rx="3.5" stroke="#E1E1E1" stroke-opacity="0.71"/>
<rect x="55" y="124" width="107" height="11" rx="5.5" fill="#F4F4F4"/>
<rect x="35" y="124" width="12" height="11" rx="5.5" fill="#F4F4F4"/>
<rect x="55.5" y="0.5" width="124" height="21" rx="3.5" fill="white" stroke="#F6F6F6"/>
<rect x="73" y="7" width="68" height="9" rx="4.5" fill="#F6F6F6"/>
<rect x="60" y="7" width="8" height="9" rx="4" fill="#F6F6F6"/>
<rect x="55.5" y="154.5" width="124" height="21" rx="3.5" fill="white" stroke="#F6F6F6"/>
<rect x="73" y="161" width="68" height="9" rx="4.5" fill="#F6F6F6"/>
<rect x="60" y="161" width="8" height="9" rx="4" fill="#F6F6F6"/>
</svg>
