<svg width="266" height="50" viewBox="0 0 266 50" fill="none" xmlns="http://www.w3.org/2000/svg">
<rect width="44.7076" height="44.7076" rx="6.87809" fill="#13715B"/>
<path d="M22.1439 36.5253V22.5257L18.4612 24.3489C11.9224 27.6047 7.86388 33.6603 7.86388 40.2368H5.1582V24.2187C5.1582 19.0096 8.61546 14.1911 14.102 11.9121L22.219 8.52617V22.5257L25.9018 20.7025C32.4405 17.4468 36.4991 11.3912 36.4991 4.81467H39.2047V20.8328C39.2047 26.0419 35.7475 30.8604 30.2609 33.1394L22.1439 36.5253Z" fill="white"/>
<path d="M59.8383 10.514L68.6697 34.1609L77.4599 10.514H82.3709L70.8569 39.8147H66.4825L54.9273 10.514H59.8383ZM92.3321 40.2274C90.6538 40.2274 89.1269 39.9385 87.7512 39.3607C86.4031 38.7555 85.2339 37.9439 84.2434 36.9259C83.253 35.8804 82.4826 34.6974 81.9324 33.3768C81.4097 32.0287 81.1483 30.5981 81.1483 29.0849C81.1483 27.049 81.616 25.1919 82.5514 23.5136C83.4868 21.8079 84.7937 20.446 86.4719 19.428C88.1502 18.3826 90.1173 17.8598 92.3733 17.8598C94.6293 17.8598 96.569 18.3826 98.1922 19.428C99.8429 20.446 101.122 21.7941 102.03 23.4724C102.938 25.1506 103.392 26.9527 103.392 28.8785C103.392 29.2087 103.378 29.5251 103.351 29.8277C103.323 30.1028 103.296 30.3367 103.268 30.5293H85.9767C86.0592 31.7948 86.4031 32.9091 87.0084 33.872C87.6412 34.8075 88.4391 35.5503 89.402 36.1005C90.3649 36.6233 91.3966 36.8846 92.4971 36.8846C93.7077 36.8846 94.8494 36.582 95.9224 35.9767C97.0229 35.3715 97.7657 34.5736 98.1509 33.5832L102.03 34.6974C101.562 35.7429 100.847 36.692 99.8842 37.5449C98.9488 38.3703 97.8345 39.0306 96.5414 39.5258C95.2484 39.9935 93.8452 40.2274 92.3321 40.2274ZM85.8529 27.5167H98.8937C98.8112 26.2786 98.4535 25.1919 97.8208 24.2565C97.2155 23.2935 96.4314 22.5507 95.4685 22.028C94.533 21.4777 93.4876 21.2026 92.3321 21.2026C91.204 21.2026 90.1586 21.4777 89.1956 22.028C88.2602 22.5507 87.4899 23.2935 86.8846 24.2565C86.2793 25.1919 85.9354 26.2786 85.8529 27.5167ZM119.228 22.1518C117.467 22.1793 115.899 22.5782 114.523 23.3486C113.175 24.1189 112.212 25.2056 111.634 26.6088V39.8147H107.095V18.2313H111.304V23.0597C112.047 21.574 113.024 20.391 114.234 19.5106C115.445 18.6027 116.724 18.1075 118.072 18.0249C118.347 18.0249 118.568 18.0249 118.733 18.0249C118.925 18.0249 119.09 18.0387 119.228 18.0662V22.1518ZM122.53 39.8147V18.2313H127.07V39.8147H122.53ZM122.53 14.6822V9.68868H127.07V14.6822H122.53ZM133.763 39.8147V22.2756H130.874V18.7678H133.763V17.9011C133.763 16.1403 134.038 14.6134 134.588 13.3203C135.166 12.0272 135.964 11.0368 136.982 10.349C138.027 9.63365 139.252 9.27599 140.655 9.27599C141.535 9.27599 142.402 9.3998 143.255 9.64741C144.108 9.86751 144.919 10.1839 145.69 10.5966L144.699 13.9806C144.287 13.7055 143.791 13.4991 143.214 13.3616C142.663 13.1965 142.127 13.114 141.604 13.114C140.559 13.114 139.747 13.5129 139.169 14.3108C138.591 15.1086 138.303 16.2641 138.303 17.7773V18.7678H143.833V22.2756H138.303V39.8147H133.763ZM147.978 44.8907C148.39 44.9457 148.789 45.0008 149.175 45.0558C149.587 45.1383 149.917 45.1796 150.165 45.1796C150.633 45.1796 151.032 45.0283 151.362 44.7257C151.719 44.4505 152.077 43.9278 152.435 43.1574C152.792 42.3871 153.233 41.2729 153.755 39.8147L144.883 18.2313H149.629L156.232 35.1926L162.092 18.2313H166.466L156.685 44.8082C156.383 45.606 155.943 46.3351 155.365 46.9954C154.787 47.6832 154.072 48.2197 153.219 48.6049C152.366 48.9901 151.362 49.1827 150.206 49.1827C149.876 49.1827 149.532 49.1551 149.175 49.1001C148.817 49.0451 148.418 48.9626 147.978 48.8525V44.8907ZM180.217 10.6379H184.55L188.182 20.5836L191.855 10.6379H196.188L191.153 23.6787L195.528 34.4498L204.648 10.514H209.724L197.715 39.8147H193.712L188.223 26.6913L182.693 39.8147H178.649L166.681 10.514H171.716L180.877 34.4498L185.252 23.6787L180.217 10.6379ZM212.604 39.8147V18.2313H217.143V39.8147H212.604ZM212.604 14.6822V9.68868H217.143V14.6822H212.604ZM230.274 40.2274C228.459 40.2274 226.739 39.9385 225.116 39.3607C223.493 38.7555 222.103 37.8613 220.948 36.6783L222.64 33.6244C223.878 34.7249 225.116 35.5228 226.354 36.018C227.619 36.5132 228.871 36.7608 230.109 36.7608C231.375 36.7608 232.407 36.527 233.204 36.0593C234.002 35.564 234.401 34.8487 234.401 33.9133C234.401 33.2255 234.195 32.7165 233.782 32.3864C233.369 32.0562 232.764 31.7673 231.966 31.5197C231.196 31.2721 230.261 30.997 229.16 30.6944C227.619 30.2266 226.326 29.7452 225.281 29.25C224.235 28.7272 223.451 28.0944 222.929 27.3516C222.406 26.6088 222.144 25.6596 222.144 24.5041C222.144 23.1009 222.502 21.9042 223.217 20.9137C223.933 19.9233 224.923 19.1667 226.189 18.6439C227.482 18.1212 228.967 17.8598 230.646 17.8598C232.214 17.8598 233.658 18.1075 234.979 18.6027C236.327 19.0704 237.51 19.8132 238.528 20.8312L236.588 23.8438C235.625 22.9634 234.635 22.3168 233.617 21.9042C232.627 21.4915 231.554 21.2851 230.398 21.2851C229.738 21.2851 229.105 21.3677 228.5 21.5327C227.894 21.6703 227.386 21.9454 226.973 22.3581C226.588 22.7433 226.395 23.2935 226.395 24.0089C226.395 24.5866 226.56 25.0543 226.89 25.412C227.22 25.7696 227.716 26.0723 228.376 26.3199C229.036 26.5675 229.848 26.8426 230.811 27.1453C232.489 27.6405 233.92 28.1357 235.103 28.6309C236.286 29.0986 237.194 29.7177 237.826 30.488C238.487 31.2308 238.817 32.2626 238.817 33.5832C238.817 35.6741 238.033 37.3111 236.465 38.4941C234.924 39.6496 232.86 40.2274 230.274 40.2274ZM252.651 40.2274C250.972 40.2274 249.445 39.9385 248.07 39.3607C246.722 38.7555 245.552 37.9439 244.562 36.9259C243.571 35.8804 242.801 34.6974 242.251 33.3768C241.728 32.0287 241.467 30.5981 241.467 29.0849C241.467 27.049 241.935 25.1919 242.87 23.5136C243.805 21.8079 245.112 20.446 246.79 19.428C248.469 18.3826 250.436 17.8598 252.692 17.8598C254.948 17.8598 256.887 18.3826 258.511 19.428C260.161 20.446 261.441 21.7941 262.349 23.4724C263.257 25.1506 263.711 26.9527 263.711 28.8785C263.711 29.2087 263.697 29.5251 263.669 29.8277C263.642 30.1028 263.614 30.3367 263.587 30.5293H246.295C246.378 31.7948 246.722 32.9091 247.327 33.872C247.96 34.8075 248.758 35.5503 249.721 36.1005C250.683 36.6233 251.715 36.8846 252.816 36.8846C254.026 36.8846 255.168 36.582 256.241 35.9767C257.341 35.3715 258.084 34.5736 258.469 33.5832L262.349 34.6974C261.881 35.7429 261.166 36.692 260.203 37.5449C259.267 38.3703 258.153 39.0306 256.86 39.5258C255.567 39.9935 254.164 40.2274 252.651 40.2274ZM246.171 27.5167H259.212C259.13 26.2786 258.772 25.1919 258.139 24.2565C257.534 23.2935 256.75 22.5507 255.787 22.028C254.852 21.4777 253.806 21.2026 252.651 21.2026C251.523 21.2026 250.477 21.4777 249.514 22.028C248.579 22.5507 247.808 23.2935 247.203 24.2565C246.598 25.1919 246.254 26.2786 246.171 27.5167Z" fill="black"/>
</svg>
