<svg width="40" height="40" viewBox="0 0 40 40" fill="none" xmlns="http://www.w3.org/2000/svg">
<path d="M9 0.75H26.0439L34.25 8.28711V36C34.25 37.7949 32.7948 39.2499 31 39.25H9C7.20507 39.25 5.75 37.7949 5.75 36V4C5.75 2.20508 7.20508 0.75 9 0.75Z" stroke="#D0D5DD" stroke-width="1.5"/>
<mask id="path-2-inside-1_5002_250" fill="white">
<path d="M25 1H33.5V9.5H26C25.4477 9.5 25 9.05228 25 8.5V1Z"/>
</mask>
<path d="M25 1H33.5H25ZM33.5 10.5H26C24.8954 10.5 24 9.60457 24 8.5H26H33.5V10.5ZM26 10.5C24.8954 10.5 24 9.60457 24 8.5V1H26V8.5V10.5ZM33.5 1V9.5V1Z" fill="#D0D5DD" mask="url(#path-2-inside-1_5002_250)"/>
<rect x="1" y="20" width="26" height="13" rx="2" fill="#17B26A"/>
<path d="M3.79289 26.48C3.79289 25.7867 3.94289 25.17 4.24289 24.63C4.54289 24.0833 4.95956 23.66 5.49289 23.36C6.03289 23.0533 6.64289 22.9 7.32289 22.9C8.15622 22.9 8.86956 23.12 9.46289 23.56C10.0562 24 10.4529 24.6 10.6529 25.36H8.77289C8.63289 25.0667 8.43289 24.8433 8.17289 24.69C7.91956 24.5367 7.62956 24.46 7.30289 24.46C6.77622 24.46 6.34956 24.6433 6.02289 25.01C5.69622 25.3767 5.53289 25.8667 5.53289 26.48C5.53289 27.0933 5.69622 27.5833 6.02289 27.95C6.34956 28.3167 6.77622 28.5 7.30289 28.5C7.62956 28.5 7.91956 28.4233 8.17289 28.27C8.43289 28.1167 8.63289 27.8933 8.77289 27.6H10.6529C10.4529 28.36 10.0562 28.96 9.46289 29.4C8.86956 29.8333 8.15622 30.05 7.32289 30.05C6.64289 30.05 6.03289 29.9 5.49289 29.6C4.95956 29.2933 4.54289 28.87 4.24289 28.33C3.94289 27.79 3.79289 27.1733 3.79289 26.48ZM14.2401 30.07C13.7267 30.07 13.2667 29.9867 12.8601 29.82C12.4534 29.6533 12.1267 29.4067 11.8801 29.08C11.6401 28.7533 11.5134 28.36 11.5001 27.9H13.3201C13.3467 28.16 13.4367 28.36 13.5901 28.5C13.7434 28.6333 13.9434 28.7 14.1901 28.7C14.4434 28.7 14.6434 28.6433 14.7901 28.53C14.9367 28.41 15.0101 28.2467 15.0101 28.04C15.0101 27.8667 14.9501 27.7233 14.8301 27.61C14.7167 27.4967 14.5734 27.4033 14.4001 27.33C14.2334 27.2567 13.9934 27.1733 13.6801 27.08C13.2267 26.94 12.8567 26.8 12.5701 26.66C12.2834 26.52 12.0367 26.3133 11.8301 26.04C11.6234 25.7667 11.5201 25.41 11.5201 24.97C11.5201 24.3167 11.7567 23.8067 12.2301 23.44C12.7034 23.0667 13.3201 22.88 14.0801 22.88C14.8534 22.88 15.4767 23.0667 15.9501 23.44C16.4234 23.8067 16.6767 24.32 16.7101 24.98H14.8601C14.8467 24.7533 14.7634 24.5767 14.6101 24.45C14.4567 24.3167 14.2601 24.25 14.0201 24.25C13.8134 24.25 13.6467 24.3067 13.5201 24.42C13.3934 24.5267 13.3301 24.6833 13.3301 24.89C13.3301 25.1167 13.4367 25.2933 13.6501 25.42C13.8634 25.5467 14.1967 25.6833 14.6501 25.83C15.1034 25.9833 15.4701 26.13 15.7501 26.27C16.0367 26.41 16.2834 26.6133 16.4901 26.88C16.6967 27.1467 16.8001 27.49 16.8001 27.91C16.8001 28.31 16.6967 28.6733 16.4901 29C16.2901 29.3267 15.9967 29.5867 15.6101 29.78C15.2234 29.9733 14.7667 30.07 14.2401 30.07ZM24.4424 22.98L21.9524 30H19.8124L17.3224 22.98H19.1424L20.8824 28.28L22.6324 22.98H24.4424Z" fill="white"/>
</svg>
