<svg width="40" height="40" viewBox="0 0 40 40" fill="none" xmlns="http://www.w3.org/2000/svg">
<path d="M9 0.75H26.0439L34.25 8.28711V36C34.25 37.7949 32.7948 39.2499 31 39.25H9C7.20507 39.25 5.75 37.7949 5.75 36V4C5.75 2.20508 7.20508 0.75 9 0.75Z" stroke="#D0D5DD" stroke-width="1.5"/>
<mask id="path-2-inside-1_5002_226" fill="white">
<path d="M25 1H33.5V9.5H26C25.4477 9.5 25 9.05228 25 8.5V1Z"/>
</mask>
<path d="M25 1H33.5H25ZM33.5 10.5H26C24.8954 10.5 24 9.60457 24 8.5H26H33.5V10.5ZM26 10.5C24.8954 10.5 24 9.60457 24 8.5V1H26V8.5V10.5ZM33.5 1V9.5V1Z" fill="#D0D5DD" mask="url(#path-2-inside-1_5002_226)"/>
<rect x="1" y="20" width="27" height="13" rx="2" fill="#444CE7"/>
<path d="M6.37793 22.98C7.11793 22.98 7.7646 23.1267 8.31793 23.42C8.87126 23.7133 9.29793 24.1267 9.59793 24.66C9.9046 25.1867 10.0579 25.7967 10.0579 26.49C10.0579 27.1767 9.9046 27.7867 9.59793 28.32C9.29793 28.8533 8.86793 29.2667 8.30793 29.56C7.7546 29.8533 7.11126 30 6.37793 30H3.74793V22.98H6.37793ZM6.26793 28.52C6.9146 28.52 7.41793 28.3433 7.77793 27.99C8.13793 27.6367 8.31793 27.1367 8.31793 26.49C8.31793 25.8433 8.13793 25.34 7.77793 24.98C7.41793 24.62 6.9146 24.44 6.26793 24.44H5.45793V28.52H6.26793ZM14.3336 30.07C13.6736 30.07 13.0669 29.9167 12.5136 29.61C11.9669 29.3033 11.5302 28.8767 11.2036 28.33C10.8836 27.7767 10.7236 27.1567 10.7236 26.47C10.7236 25.7833 10.8836 25.1667 11.2036 24.62C11.5302 24.0733 11.9669 23.6467 12.5136 23.34C13.0669 23.0333 13.6736 22.88 14.3336 22.88C14.9936 22.88 15.5969 23.0333 16.1436 23.34C16.6969 23.6467 17.1302 24.0733 17.4436 24.62C17.7636 25.1667 17.9236 25.7833 17.9236 26.47C17.9236 27.1567 17.7636 27.7767 17.4436 28.33C17.1236 28.8767 16.6902 29.3033 16.1436 29.61C15.5969 29.9167 14.9936 30.07 14.3336 30.07ZM14.3336 28.51C14.8936 28.51 15.3402 28.3233 15.6736 27.95C16.0136 27.5767 16.1836 27.0833 16.1836 26.47C16.1836 25.85 16.0136 25.3567 15.6736 24.99C15.3402 24.6167 14.8936 24.43 14.3336 24.43C13.7669 24.43 13.3136 24.6133 12.9736 24.98C12.6402 25.3467 12.4736 25.8433 12.4736 26.47C12.4736 27.09 12.6402 27.5867 12.9736 27.96C13.3136 28.3267 13.7669 28.51 14.3336 28.51ZM18.5849 26.48C18.5849 25.7867 18.7349 25.17 19.0349 24.63C19.3349 24.0833 19.7515 23.66 20.2849 23.36C20.8249 23.0533 21.4349 22.9 22.1149 22.9C22.9482 22.9 23.6615 23.12 24.2549 23.56C24.8482 24 25.2449 24.6 25.4449 25.36H23.5649C23.4249 25.0667 23.2249 24.8433 22.9649 24.69C22.7115 24.5367 22.4215 24.46 22.0949 24.46C21.5682 24.46 21.1415 24.6433 20.8149 25.01C20.4882 25.3767 20.3249 25.8667 20.3249 26.48C20.3249 27.0933 20.4882 27.5833 20.8149 27.95C21.1415 28.3167 21.5682 28.5 22.0949 28.5C22.4215 28.5 22.7115 28.4233 22.9649 28.27C23.2249 28.1167 23.4249 27.8933 23.5649 27.6H25.4449C25.2449 28.36 24.8482 28.96 24.2549 29.4C23.6615 29.8333 22.9482 30.05 22.1149 30.05C21.4349 30.05 20.8249 29.9 20.2849 29.6C19.7515 29.2933 19.3349 28.87 19.0349 28.33C18.7349 27.79 18.5849 27.1733 18.5849 26.48Z" fill="white"/>
</svg>
