<svg width="40" height="40" viewBox="0 0 40 40" fill="none" xmlns="http://www.w3.org/2000/svg">
<path d="M9 0.75H26.0439L34.25 8.28711V36C34.25 37.7949 32.7948 39.2499 31 39.25H9C7.20507 39.25 5.75 37.7949 5.75 36V4C5.75 2.20508 7.20508 0.75 9 0.75Z" stroke="#D0D5DD" stroke-width="1.5"/>
<mask id="path-2-inside-1_5003_181" fill="white">
<path d="M25 1H33.5V9.5H26C25.4477 9.5 25 9.05228 25 8.5V1Z"/>
</mask>
<path d="M25 1H33.5H25ZM33.5 10.5H26C24.8954 10.5 24 9.60457 24 8.5H26H33.5V10.5ZM26 10.5C24.8954 10.5 24 9.60457 24 8.5V1H26V8.5V10.5ZM33.5 1V9.5V1Z" fill="#D0D5DD" mask="url(#path-2-inside-1_5003_181)"/>
<rect x="1" y="20" width="30" height="13" rx="2" fill="#6172F3"/>
<path d="M8.49559 22.98V27.76C8.49559 28.5 8.28559 29.07 7.86559 29.47C7.45225 29.87 6.89225 30.07 6.18559 30.07C5.44559 30.07 4.85225 29.86 4.40559 29.44C3.95892 29.02 3.73559 28.4233 3.73559 27.65H5.43559C5.43559 27.9433 5.49559 28.1667 5.61559 28.32C5.73559 28.4667 5.90892 28.54 6.13559 28.54C6.34225 28.54 6.50225 28.4733 6.61559 28.34C6.72892 28.2067 6.78559 28.0133 6.78559 27.76V22.98H8.49559ZM15.2268 25.24C15.2268 25.6467 15.1335 26.02 14.9468 26.36C14.7602 26.6933 14.4735 26.9633 14.0868 27.17C13.7002 27.3767 13.2202 27.48 12.6468 27.48H11.5868V30H9.87684V22.98H12.6468C13.2068 22.98 13.6802 23.0767 14.0668 23.27C14.4535 23.4633 14.7435 23.73 14.9368 24.07C15.1302 24.41 15.2268 24.8 15.2268 25.24ZM12.5168 26.12C12.8435 26.12 13.0868 26.0433 13.2468 25.89C13.4068 25.7367 13.4868 25.52 13.4868 25.24C13.4868 24.96 13.4068 24.7433 13.2468 24.59C13.0868 24.4367 12.8435 24.36 12.5168 24.36H11.5868V26.12H12.5168ZM17.8271 24.35V25.77H20.1171V27.09H17.8271V28.63H20.4171V30H16.1171V22.98H20.4171V24.35H17.8271ZM26.1872 25.2C26.0606 24.9667 25.8772 24.79 25.6372 24.67C25.4039 24.5433 25.1272 24.48 24.8072 24.48C24.2539 24.48 23.8106 24.6633 23.4772 25.03C23.1439 25.39 22.9772 25.8733 22.9772 26.48C22.9772 27.1267 23.1506 27.6333 23.4972 28C23.8506 28.36 24.3339 28.54 24.9472 28.54C25.3672 28.54 25.7206 28.4333 26.0072 28.22C26.3006 28.0067 26.5139 27.7 26.6472 27.3H24.4772V26.04H28.1972V27.63C28.0706 28.0567 27.8539 28.4533 27.5472 28.82C27.2472 29.1867 26.8639 29.4833 26.3972 29.71C25.9306 29.9367 25.4039 30.05 24.8172 30.05C24.1239 30.05 23.5039 29.9 22.9572 29.6C22.4172 29.2933 21.9939 28.87 21.6872 28.33C21.3872 27.79 21.2372 27.1733 21.2372 26.48C21.2372 25.7867 21.3872 25.17 21.6872 24.63C21.9939 24.0833 22.4172 23.66 22.9572 23.36C23.4972 23.0533 24.1139 22.9 24.8072 22.9C25.6472 22.9 26.3539 23.1033 26.9272 23.51C27.5072 23.9167 27.8906 24.48 28.0772 25.2H26.1872Z" fill="white"/>
</svg>
