<svg width="40" height="40" viewBox="0 0 40 40" fill="none" xmlns="http://www.w3.org/2000/svg">
<path d="M9 0.75H26.0439L34.25 8.28711V36C34.25 37.7949 32.7948 39.2499 31 39.25H9C7.20507 39.25 5.75 37.7949 5.75 36V4C5.75 2.20508 7.20508 0.75 9 0.75Z" stroke="#D0D5DD" stroke-width="1.5"/>
<mask id="path-2-inside-1_5003_175" fill="white">
<path d="M25 1H33.5V9.5H26C25.4477 9.5 25 9.05228 25 8.5V1Z"/>
</mask>
<path d="M25 1H33.5H25ZM33.5 10.5H26C24.8954 10.5 24 9.60457 24 8.5H26H33.5V10.5ZM26 10.5C24.8954 10.5 24 9.60457 24 8.5V1H26V8.5V10.5ZM33.5 1V9.5V1Z" fill="#D0D5DD" mask="url(#path-2-inside-1_5003_175)"/>
<rect x="1" y="20" width="24" height="13" rx="2" fill="#6172F3"/>
<path d="M8.20066 22.98V27.76C8.20066 28.5 7.99066 29.07 7.57066 29.47C7.15733 29.87 6.59733 30.07 5.89066 30.07C5.15066 30.07 4.55733 29.86 4.11066 29.44C3.664 29.02 3.44066 28.4233 3.44066 27.65H5.14066C5.14066 27.9433 5.20066 28.1667 5.32066 28.32C5.44066 28.4667 5.614 28.54 5.84066 28.54C6.04733 28.54 6.20733 28.4733 6.32066 28.34C6.434 28.2067 6.49066 28.0133 6.49066 27.76V22.98H8.20066ZM14.9319 25.24C14.9319 25.6467 14.8386 26.02 14.6519 26.36C14.4652 26.6933 14.1786 26.9633 13.7919 27.17C13.4052 27.3767 12.9252 27.48 12.3519 27.48H11.2919V30H9.58191V22.98H12.3519C12.9119 22.98 13.3852 23.0767 13.7719 23.27C14.1586 23.4633 14.4486 23.73 14.6419 24.07C14.8352 24.41 14.9319 24.8 14.9319 25.24ZM12.2219 26.12C12.5486 26.12 12.7919 26.0433 12.9519 25.89C13.1119 25.7367 13.1919 25.52 13.1919 25.24C13.1919 24.96 13.1119 24.7433 12.9519 24.59C12.7919 24.4367 12.5486 24.36 12.2219 24.36H11.2919V26.12H12.2219ZM20.4821 25.2C20.3555 24.9667 20.1721 24.79 19.9321 24.67C19.6988 24.5433 19.4221 24.48 19.1021 24.48C18.5488 24.48 18.1055 24.6633 17.7721 25.03C17.4388 25.39 17.2721 25.8733 17.2721 26.48C17.2721 27.1267 17.4455 27.6333 17.7921 28C18.1455 28.36 18.6288 28.54 19.2421 28.54C19.6621 28.54 20.0155 28.4333 20.3021 28.22C20.5955 28.0067 20.8088 27.7 20.9421 27.3H18.7721V26.04H22.4921V27.63C22.3655 28.0567 22.1488 28.4533 21.8421 28.82C21.5421 29.1867 21.1588 29.4833 20.6921 29.71C20.2255 29.9367 19.6988 30.05 19.1121 30.05C18.4188 30.05 17.7988 29.9 17.2521 29.6C16.7121 29.2933 16.2888 28.87 15.9821 28.33C15.6821 27.79 15.5321 27.1733 15.5321 26.48C15.5321 25.7867 15.6821 25.17 15.9821 24.63C16.2888 24.0833 16.7121 23.66 17.2521 23.36C17.7921 23.0533 18.4088 22.9 19.1021 22.9C19.9421 22.9 20.6488 23.1033 21.2221 23.51C21.8021 23.9167 22.1855 24.48 22.3721 25.2H20.4821Z" fill="white"/>
</svg>
