<svg width="40" height="40" viewBox="0 0 40 40" fill="none" xmlns="http://www.w3.org/2000/svg">
<path d="M9 0.75H26.0439L34.25 8.28711V36C34.25 37.7949 32.7948 39.2499 31 39.25H9C7.20507 39.25 5.75 37.7949 5.75 36V4C5.75 2.20508 7.20508 0.75 9 0.75Z" stroke="#D0D5DD" stroke-width="1.5"/>
<mask id="path-2-inside-1_5003_187" fill="white">
<path d="M25 1H33.5V9.5H26C25.4477 9.5 25 9.05228 25 8.5V1Z"/>
</mask>
<path d="M25 1H33.5H25ZM33.5 10.5H26C24.8954 10.5 24 9.60457 24 8.5H26H33.5V10.5ZM26 10.5C24.8954 10.5 24 9.60457 24 8.5V1H26V8.5V10.5ZM33.5 1V9.5V1Z" fill="#D0D5DD" mask="url(#path-2-inside-1_5003_187)"/>
<rect x="1" y="20" width="26" height="13" rx="2" fill="#6172F3"/>
<path d="M9.28152 25.24C9.28152 25.6467 9.18819 26.02 9.00152 26.36C8.81486 26.6933 8.52819 26.9633 8.14152 27.17C7.75486 27.3767 7.27486 27.48 6.70152 27.48H5.64152V30H3.93152V22.98H6.70152C7.26152 22.98 7.73486 23.0767 8.12152 23.27C8.50819 23.4633 8.79819 23.73 8.99152 24.07C9.18486 24.41 9.28152 24.8 9.28152 25.24ZM6.57152 26.12C6.89819 26.12 7.14152 26.0433 7.30152 25.89C7.46152 25.7367 7.54152 25.52 7.54152 25.24C7.54152 24.96 7.46152 24.7433 7.30152 24.59C7.14152 24.4367 6.89819 24.36 6.57152 24.36H5.64152V26.12H6.57152ZM16.4518 30H14.7418L11.8818 25.67V30H10.1718V22.98H11.8818L14.7418 27.33V22.98H16.4518V30ZM22.3513 25.2C22.2246 24.9667 22.0413 24.79 21.8013 24.67C21.568 24.5433 21.2913 24.48 20.9713 24.48C20.418 24.48 19.9746 24.6633 19.6413 25.03C19.308 25.39 19.1413 25.8733 19.1413 26.48C19.1413 27.1267 19.3146 27.6333 19.6613 28C20.0146 28.36 20.498 28.54 21.1113 28.54C21.5313 28.54 21.8846 28.4333 22.1713 28.22C22.4646 28.0067 22.678 27.7 22.8113 27.3H20.6413V26.04H24.3613V27.63C24.2346 28.0567 24.018 28.4533 23.7113 28.82C23.4113 29.1867 23.028 29.4833 22.5613 29.71C22.0946 29.9367 21.568 30.05 20.9813 30.05C20.288 30.05 19.668 29.9 19.1213 29.6C18.5813 29.2933 18.158 28.87 17.8513 28.33C17.5513 27.79 17.4013 27.1733 17.4013 26.48C17.4013 25.7867 17.5513 25.17 17.8513 24.63C18.158 24.0833 18.5813 23.66 19.1213 23.36C19.6613 23.0533 20.278 22.9 20.9713 22.9C21.8113 22.9 22.518 23.1033 23.0913 23.51C23.6713 23.9167 24.0546 24.48 24.2413 25.2H22.3513Z" fill="white"/>
</svg>
