<svg width="40" height="40" viewBox="0 0 40 40" fill="none" xmlns="http://www.w3.org/2000/svg">
<path d="M9 0.75H26.0439L34.25 8.28711V36C34.25 37.7949 32.7948 39.2499 31 39.25H9C7.20507 39.25 5.75 37.7949 5.75 36V4C5.75 2.20508 7.20508 0.75 9 0.75Z" stroke="#D0D5DD" stroke-width="1.5"/>
<mask id="path-2-inside-1_5002_274" fill="white">
<path d="M25 1H33.5V9.5H26C25.4477 9.5 25 9.05228 25 8.5V1Z"/>
</mask>
<path d="M25 1H33.5H25ZM33.5 10.5H26C24.8954 10.5 24 9.60457 24 8.5H26H33.5V10.5ZM26 10.5C24.8954 10.5 24 9.60457 24 8.5V1H26V8.5V10.5ZM33.5 1V9.5V1Z" fill="#D0D5DD" mask="url(#path-2-inside-1_5002_274)"/>
<rect x="1" y="20" width="23" height="13" rx="2" fill="#F97066"/>
<path d="M9.27566 25.24C9.27566 25.6467 9.18233 26.02 8.99566 26.36C8.809 26.6933 8.52233 26.9633 8.13566 27.17C7.749 27.3767 7.269 27.48 6.69566 27.48H5.63566V30H3.92566V22.98H6.69566C7.25566 22.98 7.729 23.0767 8.11566 23.27C8.50233 23.4633 8.79233 23.73 8.98566 24.07C9.179 24.41 9.27566 24.8 9.27566 25.24ZM6.56566 26.12C6.89233 26.12 7.13566 26.0433 7.29566 25.89C7.45566 25.7367 7.53566 25.52 7.53566 25.24C7.53566 24.96 7.45566 24.7433 7.29566 24.59C7.13566 24.4367 6.89233 24.36 6.56566 24.36H5.63566V26.12H6.56566ZM15.5159 25.24C15.5159 25.6467 15.4226 26.02 15.2359 26.36C15.0492 26.6933 14.7626 26.9633 14.3759 27.17C13.9892 27.3767 13.5092 27.48 12.9359 27.48H11.8759V30H10.1659V22.98H12.9359C13.4959 22.98 13.9692 23.0767 14.3559 23.27C14.7426 23.4633 15.0326 23.73 15.2259 24.07C15.4192 24.41 15.5159 24.8 15.5159 25.24ZM12.8059 26.12C13.1326 26.12 13.3759 26.0433 13.5359 25.89C13.6959 25.7367 13.7759 25.52 13.7759 25.24C13.7759 24.96 13.6959 24.7433 13.5359 24.59C13.3759 24.4367 13.1326 24.36 12.8059 24.36H11.8759V26.12H12.8059ZM21.4561 22.98V24.35H19.5961V30H17.8861V24.35H16.0261V22.98H21.4561Z" fill="white"/>
</svg>
