<svg width="40" height="40" viewBox="0 0 40 40" fill="none" xmlns="http://www.w3.org/2000/svg">
<path d="M9 0.75H26.0439L34.25 8.28711V36C34.25 37.7949 32.7948 39.2499 31 39.25H9C7.20507 39.25 5.75 37.7949 5.75 36V4C5.75 2.20508 7.20508 0.75 9 0.75Z" stroke="#D0D5DD" stroke-width="1.5"/>
<mask id="path-2-inside-1_5002_268" fill="white">
<path d="M25 1H33.5V9.5H26C25.4477 9.5 25 9.05228 25 8.5V1Z"/>
</mask>
<path d="M25 1H33.5H25ZM33.5 10.5H26C24.8954 10.5 24 9.60457 24 8.5H26H33.5V10.5ZM26 10.5C24.8954 10.5 24 9.60457 24 8.5V1H26V8.5V10.5ZM33.5 1V9.5V1Z" fill="#D0D5DD" mask="url(#path-2-inside-1_5002_268)"/>
<rect x="1" y="20" width="30" height="13" rx="2" fill="#F97066"/>
<path d="M9.20145 25.24C9.20145 25.6467 9.10811 26.02 8.92145 26.36C8.73478 26.6933 8.44811 26.9633 8.06145 27.17C7.67478 27.3767 7.19478 27.48 6.62145 27.48H5.56145V30H3.85145V22.98H6.62145C7.18145 22.98 7.65478 23.0767 8.04145 23.27C8.42811 23.4633 8.71811 23.73 8.91145 24.07C9.10478 24.41 9.20145 24.8 9.20145 25.24ZM6.49145 26.12C6.81811 26.12 7.06145 26.0433 7.22145 25.89C7.38145 25.7367 7.46145 25.52 7.46145 25.24C7.46145 24.96 7.38145 24.7433 7.22145 24.59C7.06145 24.4367 6.81811 24.36 6.49145 24.36H5.56145V26.12H6.49145ZM15.4417 25.24C15.4417 25.6467 15.3483 26.02 15.1617 26.36C14.975 26.6933 14.6883 26.9633 14.3017 27.17C13.915 27.3767 13.435 27.48 12.8617 27.48H11.8017V30H10.0917V22.98H12.8617C13.4217 22.98 13.895 23.0767 14.2817 23.27C14.6683 23.4633 14.9583 23.73 15.1517 24.07C15.345 24.41 15.4417 24.8 15.4417 25.24ZM12.7317 26.12C13.0583 26.12 13.3017 26.0433 13.4617 25.89C13.6217 25.7367 13.7017 25.52 13.7017 25.24C13.7017 24.96 13.6217 24.7433 13.4617 24.59C13.3017 24.4367 13.0583 24.36 12.7317 24.36H11.8017V26.12H12.7317ZM21.3819 22.98V24.35H19.5219V30H17.8119V24.35H15.9519V22.98H21.3819ZM26.5401 30L25.1101 27.85L23.8501 30H21.9101L24.1601 26.43L21.8601 22.98H23.8501L25.2601 25.1L26.5001 22.98H28.4401L26.2101 26.52L28.5301 30H26.5401Z" fill="white"/>
</svg>
