<svg width="40" height="40" viewBox="0 0 40 40" fill="none" xmlns="http://www.w3.org/2000/svg">
<path d="M9 0.75H26.0439L34.25 8.28711V36C34.25 37.7949 32.7948 39.2499 31 39.25H9C7.20507 39.25 5.75 37.7949 5.75 36V4C5.75 2.20508 7.20508 0.75 9 0.75Z" stroke="#D0D5DD" stroke-width="1.5"/>
<mask id="path-2-inside-1_5002_286" fill="white">
<path d="M25 1H33.5V9.5H26C25.4477 9.5 25 9.05228 25 8.5V1Z"/>
</mask>
<path d="M25 1H33.5H25ZM33.5 10.5H26C24.8954 10.5 24 9.60457 24 8.5H26H33.5V10.5ZM26 10.5C24.8954 10.5 24 9.60457 24 8.5V1H26V8.5V10.5ZM33.5 1V9.5V1Z" fill="#D0D5DD" mask="url(#path-2-inside-1_5002_286)"/>
<rect x="1" y="20" width="25" height="13" rx="2" fill="#344054"/>
<path d="M7.49004 30L6.03004 27.35H5.62004V30H3.91004V22.98H6.78004C7.33337 22.98 7.80337 23.0767 8.19004 23.27C8.58337 23.4633 8.87671 23.73 9.07004 24.07C9.26337 24.4033 9.36004 24.7767 9.36004 25.19C9.36004 25.6567 9.22671 26.0733 8.96004 26.44C8.70004 26.8067 8.31337 27.0667 7.80004 27.22L9.42004 30H7.49004ZM5.62004 26.14H6.68004C6.99337 26.14 7.22671 26.0633 7.38004 25.91C7.54004 25.7567 7.62004 25.54 7.62004 25.26C7.62004 24.9933 7.54004 24.7833 7.38004 24.63C7.22671 24.4767 6.99337 24.4 6.68004 24.4H5.62004V26.14ZM14.8035 28.76H12.1835L11.7635 30H9.97348L12.5135 22.98H14.4935L17.0335 30H15.2235L14.8035 28.76ZM14.3635 27.44L13.4935 24.87L12.6335 27.44H14.3635ZM21.3865 30L19.9265 27.35H19.5165V30H17.8065V22.98H20.6765C21.2299 22.98 21.6999 23.0767 22.0865 23.27C22.4799 23.4633 22.7732 23.73 22.9665 24.07C23.1599 24.4033 23.2565 24.7767 23.2565 25.19C23.2565 25.6567 23.1232 26.0733 22.8565 26.44C22.5965 26.8067 22.2099 27.0667 21.6965 27.22L23.3165 30H21.3865ZM19.5165 26.14H20.5765C20.8899 26.14 21.1232 26.0633 21.2765 25.91C21.4365 25.7567 21.5165 25.54 21.5165 25.26C21.5165 24.9933 21.4365 24.7833 21.2765 24.63C21.1232 24.4767 20.8899 24.4 20.5765 24.4H19.5165V26.14Z" fill="white"/>
</svg>
