<svg width="40" height="40" viewBox="0 0 40 40" fill="none" xmlns="http://www.w3.org/2000/svg">
<path d="M9 0.75H26.0439L34.25 8.28711V36C34.25 37.7949 32.7948 39.2499 31 39.25H9C7.20507 39.25 5.75 37.7949 5.75 36V4C5.75 2.20508 7.20508 0.75 9 0.75Z" stroke="#D0D5DD" stroke-width="1.5"/>
<mask id="path-2-inside-1_5002_244" fill="white">
<path d="M25 1H33.5V9.5H26C25.4477 9.5 25 9.05228 25 8.5V1Z"/>
</mask>
<path d="M25 1H33.5H25ZM33.5 10.5H26C24.8954 10.5 24 9.60457 24 8.5H26H33.5V10.5ZM26 10.5C24.8954 10.5 24 9.60457 24 8.5V1H26V8.5V10.5ZM33.5 1V9.5V1Z" fill="#D0D5DD" mask="url(#path-2-inside-1_5002_244)"/>
<rect x="1" y="20" width="23" height="13" rx="2" fill="#344054"/>
<path d="M8.68758 22.98V24.35H6.82758V30H5.11758V24.35H3.25758V22.98H8.68758ZM13.8458 30L12.4158 27.85L11.1558 30H9.21578L11.4658 26.43L9.16578 22.98H11.1558L12.5658 25.1L13.8058 22.98H15.7458L13.5158 26.52L15.8358 30H13.8458ZM21.7442 22.98V24.35H19.8842V30H18.1742V24.35H16.3142V22.98H21.7442Z" fill="white"/>
</svg>
