<svg width="40" height="40" viewBox="0 0 40 40" fill="none" xmlns="http://www.w3.org/2000/svg">
<path d="M9 0.75H26.0439L34.25 8.28711V36C34.25 37.7949 32.7948 39.2499 31 39.25H9C7.20507 39.25 5.75 37.7949 5.75 36V4C5.75 2.20508 7.20508 0.75 9 0.75Z" stroke="#D0D5DD" stroke-width="1.5"/>
<mask id="path-2-inside-1_5002_280" fill="white">
<path d="M25 1H33.5V9.5H26C25.4477 9.5 25 9.05228 25 8.5V1Z"/>
</mask>
<path d="M25 1H33.5H25ZM33.5 10.5H26C24.8954 10.5 24 9.60457 24 8.5H26H33.5V10.5ZM26 10.5C24.8954 10.5 24 9.60457 24 8.5V1H26V8.5V10.5ZM33.5 1V9.5V1Z" fill="#D0D5DD" mask="url(#path-2-inside-1_5002_280)"/>
<rect x="1" y="20" width="20" height="13" rx="2" fill="#344054"/>
<path d="M5.86676 28.6H8.88676V30H3.92676V28.7L6.92676 24.38H3.92676V22.98H8.88676V24.28L5.86676 28.6ZM11.7138 22.98V30H10.0038V22.98H11.7138ZM18.303 25.24C18.303 25.6467 18.2097 26.02 18.023 26.36C17.8363 26.6933 17.5497 26.9633 17.163 27.17C16.7763 27.3767 16.2963 27.48 15.723 27.48H14.663V30H12.953V22.98H15.723C16.283 22.98 16.7563 23.0767 17.143 23.27C17.5297 23.4633 17.8197 23.73 18.013 24.07C18.2063 24.41 18.303 24.8 18.303 25.24ZM15.593 26.12C15.9197 26.12 16.163 26.0433 16.323 25.89C16.483 25.7367 16.563 25.52 16.563 25.24C16.563 24.96 16.483 24.7433 16.323 24.59C16.163 24.4367 15.9197 24.36 15.593 24.36H14.663V26.12H15.593Z" fill="white"/>
</svg>
